<svg width="81" height="105" viewBox="0 0 81 105" fill="none" xmlns="http://www.w3.org/2000/svg">
<path d="M45.9179 47.4111C48.7322 50.2052 48.729 54.7385 45.9109 57.5364L12.3068 90.8995C10.243 92.9485 7.14064 93.5629 4.44704 92.4568C1.75301 91.3503 -0.00217449 88.7409 2.02191e-06 85.8453C0.00747763 75.1187 0.0173155 60.7958 0.026777 47.021L0.0459536 19.1646C0.0483879 16.2688 1.80676 13.6574 4.50228 12.5472C7.1978 11.437 10.2987 12.0475 12.36 14.094L45.9179 47.4111Z" fill="#465A65"/>
<path d="M79.358 56.3776C81.5453 54.2234 81.5477 50.7333 79.3634 48.582L53.3186 22.9308C51.7188 21.3551 49.3121 20.8851 47.22 21.7399C45.128 22.5947 43.7633 24.6052 43.7614 26.8347L43.7563 34.0946L58.4661 48.582C60.6503 50.7333 60.6479 54.2234 58.4606 56.3776L43.7308 70.8849L43.7257 78.173C43.724 80.4023 45.0863 82.4113 47.1771 83.2632C49.2677 84.1148 51.6755 83.6417 53.2772 82.0642L79.358 56.3776Z" fill="#607D8B"/>
</svg>
