<svg width="328" height="105" viewBox="0 0 328 105" fill="none" xmlns="http://www.w3.org/2000/svg">
<path d="M132.415 44.6875C132.256 43.1989 131.585 42.0398 130.403 41.2102C129.233 40.3807 127.71 39.9659 125.835 39.9659C124.517 39.9659 123.386 40.1648 122.443 40.5625C121.5 40.9602 120.778 41.5 120.278 42.1818C119.778 42.8636 119.523 43.642 119.511 44.517C119.511 45.2443 119.676 45.875 120.006 46.4091C120.347 46.9432 120.807 47.3977 121.386 47.7727C121.966 48.1364 122.608 48.4432 123.312 48.6932C124.017 48.9432 124.727 49.1534 125.443 49.3239L128.716 50.142C130.034 50.4489 131.301 50.8636 132.517 51.3864C133.744 51.9091 134.841 52.5682 135.807 53.3636C136.784 54.1591 137.557 55.1193 138.125 56.2443C138.693 57.3693 138.977 58.6875 138.977 60.1989C138.977 62.2443 138.455 64.0455 137.409 65.6023C136.364 67.1477 134.852 68.358 132.875 69.233C130.909 70.0966 128.528 70.5284 125.733 70.5284C123.017 70.5284 120.659 70.108 118.659 69.267C116.67 68.4261 115.114 67.1989 113.989 65.5852C112.875 63.9716 112.273 62.0057 112.182 59.6875H118.403C118.494 60.9034 118.869 61.9148 119.528 62.7216C120.188 63.5284 121.045 64.1307 122.102 64.5284C123.17 64.9261 124.364 65.125 125.682 65.125C127.057 65.125 128.261 64.9205 129.295 64.5114C130.341 64.0909 131.159 63.5114 131.75 62.7727C132.341 62.0227 132.642 61.1477 132.653 60.1477C132.642 59.2386 132.375 58.4886 131.852 57.8977C131.33 57.2955 130.597 56.7955 129.653 56.3977C128.722 55.9886 127.631 55.625 126.381 55.3068L122.409 54.2841C119.534 53.5455 117.261 52.4261 115.591 50.9261C113.932 49.4148 113.102 47.4091 113.102 44.9091C113.102 42.8523 113.659 41.0511 114.773 39.5057C115.898 37.9602 117.426 36.7614 119.358 35.9091C121.29 35.0455 123.477 34.6136 125.92 34.6136C128.398 34.6136 130.568 35.0455 132.432 35.9091C134.307 36.7614 135.778 37.9489 136.847 39.4716C137.915 40.983 138.466 42.7216 138.5 44.6875H132.415ZM155.933 70.5114C153.308 70.5114 151.041 69.9659 149.132 68.875C147.234 67.7727 145.774 66.2159 144.751 64.2045C143.729 62.1818 143.217 59.8011 143.217 57.0625C143.217 54.3693 143.729 52.0057 144.751 49.9716C145.786 47.9261 147.229 46.3352 149.081 45.1989C150.933 44.0511 153.109 43.4773 155.609 43.4773C157.223 43.4773 158.746 43.7386 160.178 44.2614C161.621 44.7727 162.893 45.5682 163.996 46.6477C165.109 47.7273 165.984 49.1023 166.621 50.7727C167.257 52.4318 167.575 54.4091 167.575 56.7045V58.5966H146.115V54.4375H161.661C161.649 53.2557 161.393 52.2045 160.893 51.2841C160.393 50.3523 159.695 49.6193 158.797 49.0852C157.911 48.5511 156.876 48.2841 155.695 48.2841C154.433 48.2841 153.325 48.5909 152.371 49.2045C151.416 49.8068 150.672 50.6023 150.138 51.5909C149.615 52.5682 149.348 53.642 149.337 54.8125V58.4432C149.337 59.9659 149.615 61.2727 150.172 62.3636C150.729 63.4432 151.507 64.2727 152.507 64.8523C153.507 65.4205 154.678 65.7045 156.018 65.7045C156.916 65.7045 157.729 65.5795 158.456 65.3295C159.183 65.0682 159.814 64.6875 160.348 64.1875C160.882 63.6875 161.286 63.0682 161.558 62.3295L167.32 62.9773C166.956 64.5 166.263 65.8295 165.24 66.9659C164.229 68.0909 162.933 68.9659 161.354 69.5909C159.774 70.2045 157.967 70.5114 155.933 70.5114ZM172.795 70V43.8182H178.778V48.1818H179.051C179.528 46.6705 180.347 45.5057 181.506 44.6875C182.676 43.858 184.011 43.4432 185.511 43.4432C185.852 43.4432 186.233 43.4602 186.653 43.4943C187.085 43.517 187.443 43.5568 187.727 43.6136V49.2898C187.466 49.1989 187.051 49.1193 186.483 49.0511C185.926 48.9716 185.386 48.9318 184.864 48.9318C183.739 48.9318 182.727 49.1761 181.83 49.6648C180.943 50.142 180.244 50.8068 179.733 51.6591C179.222 52.5114 178.966 53.4943 178.966 54.608V70H172.795ZM216.01 43.8182L206.686 70H199.868L190.544 43.8182H197.124L203.141 63.267H203.413L209.447 43.8182H216.01ZM220.28 70V43.8182H226.45V70H220.28ZM223.382 40.1023C222.405 40.1023 221.564 39.7784 220.859 39.1307C220.155 38.4716 219.803 37.6818 219.803 36.7614C219.803 35.8295 220.155 35.0398 220.859 34.392C221.564 33.733 222.405 33.4034 223.382 33.4034C224.371 33.4034 225.212 33.733 225.905 34.392C226.609 35.0398 226.962 35.8295 226.962 36.7614C226.962 37.6818 226.609 38.4716 225.905 39.1307C225.212 39.7784 224.371 40.1023 223.382 40.1023ZM244.216 70.5114C241.602 70.5114 239.358 69.9375 237.483 68.7898C235.619 67.642 234.182 66.0568 233.17 64.0341C232.17 62 231.67 59.6591 231.67 57.0114C231.67 54.3523 232.182 52.0057 233.205 49.9716C234.227 47.9261 235.67 46.3352 237.534 45.1989C239.409 44.0511 241.625 43.4773 244.182 43.4773C246.307 43.4773 248.188 43.8693 249.824 44.6534C251.472 45.4261 252.784 46.5227 253.761 47.9432C254.739 49.3523 255.295 51 255.432 52.8864H249.534C249.295 51.625 248.727 50.5739 247.83 49.733C246.943 48.8807 245.756 48.4545 244.267 48.4545C243.006 48.4545 241.898 48.7955 240.943 49.4773C239.989 50.1477 239.244 51.1136 238.71 52.375C238.188 53.6364 237.926 55.1477 237.926 56.9091C237.926 58.6932 238.188 60.2273 238.71 61.5114C239.233 62.7841 239.966 63.767 240.909 64.4602C241.864 65.142 242.983 65.483 244.267 65.483C245.176 65.483 245.989 65.3125 246.705 64.9716C247.432 64.6193 248.04 64.1136 248.528 63.4545C249.017 62.7955 249.352 61.9943 249.534 61.0511H255.432C255.284 62.9034 254.739 64.5455 253.795 65.9773C252.852 67.3977 251.568 68.5114 249.943 69.3182C248.318 70.1136 246.409 70.5114 244.216 70.5114ZM272.089 70.5114C269.464 70.5114 267.197 69.9659 265.288 68.875C263.391 67.7727 261.93 66.2159 260.908 64.2045C259.885 62.1818 259.374 59.8011 259.374 57.0625C259.374 54.3693 259.885 52.0057 260.908 49.9716C261.942 47.9261 263.385 46.3352 265.237 45.1989C267.089 44.0511 269.266 43.4773 271.766 43.4773C273.379 43.4773 274.902 43.7386 276.334 44.2614C277.777 44.7727 279.05 45.5682 280.152 46.6477C281.266 47.7273 282.141 49.1023 282.777 50.7727C283.413 52.4318 283.732 54.4091 283.732 56.7045V58.5966H262.271V54.4375H277.817C277.805 53.2557 277.55 52.2045 277.05 51.2841C276.55 50.3523 275.851 49.6193 274.953 49.0852C274.067 48.5511 273.033 48.2841 271.851 48.2841C270.589 48.2841 269.482 48.5909 268.527 49.2045C267.572 49.8068 266.828 50.6023 266.294 51.5909C265.771 52.5682 265.504 53.642 265.493 54.8125V58.4432C265.493 59.9659 265.771 61.2727 266.328 62.3636C266.885 63.4432 267.663 64.2727 268.663 64.8523C269.663 65.4205 270.834 65.7045 272.175 65.7045C273.072 65.7045 273.885 65.5795 274.612 65.3295C275.339 65.0682 275.97 64.6875 276.504 64.1875C277.038 63.6875 277.442 63.0682 277.714 62.3295L283.476 62.9773C283.112 64.5 282.419 65.8295 281.396 66.9659C280.385 68.0909 279.089 68.9659 277.51 69.5909C275.93 70.2045 274.124 70.5114 272.089 70.5114ZM309.645 50.7386L304.02 51.3523C303.861 50.7841 303.582 50.25 303.185 49.75C302.798 49.25 302.276 48.8466 301.616 48.5398C300.957 48.233 300.151 48.0795 299.196 48.0795C297.912 48.0795 296.832 48.358 295.957 48.9148C295.094 49.4716 294.668 50.1932 294.679 51.0795C294.668 51.8409 294.946 52.4602 295.514 52.9375C296.094 53.4148 297.048 53.8068 298.378 54.1136L302.844 55.0682C305.321 55.6023 307.162 56.4489 308.366 57.608C309.582 58.767 310.196 60.2841 310.207 62.1591C310.196 63.8068 309.713 65.2614 308.759 66.5227C307.815 67.7727 306.503 68.75 304.821 69.4545C303.139 70.1591 301.207 70.5114 299.026 70.5114C295.821 70.5114 293.241 69.8409 291.287 68.5C289.332 67.1477 288.168 65.267 287.793 62.858L293.81 62.2784C294.082 63.4602 294.662 64.3523 295.548 64.9545C296.435 65.5568 297.588 65.858 299.009 65.858C300.474 65.858 301.651 65.5568 302.537 64.9545C303.435 64.3523 303.884 63.608 303.884 62.7216C303.884 61.9716 303.594 61.3523 303.014 60.8636C302.446 60.375 301.56 60 300.355 59.7386L295.889 58.8011C293.378 58.2784 291.52 57.3977 290.315 56.1591C289.111 54.9091 288.514 53.3295 288.526 51.4205C288.514 49.8068 288.952 48.4091 289.838 47.2273C290.736 46.0341 291.98 45.1136 293.571 44.4659C295.173 43.8068 297.02 43.4773 299.111 43.4773C302.179 43.4773 304.594 44.1307 306.355 45.4375C308.128 46.7443 309.224 48.5114 309.645 50.7386Z" fill="white"/>
<path d="M60.1152 48.165C62.5126 50.5452 62.5099 54.4068 60.1092 56.7903L31.4835 85.2107C29.7255 86.9561 27.0828 87.4795 24.7882 86.5373C22.4933 85.5947 20.9981 83.3719 21 80.9053C21.0064 71.7678 21.0148 59.5668 21.0228 47.8327L21.0391 24.1032C21.0412 21.6364 22.5391 19.4119 24.8353 18.4661C27.1315 17.5204 29.773 18.0404 31.5289 19.7838L60.1152 48.165Z" fill="#465A65"/>
<path d="M88.6012 55.8033C90.4645 53.9683 90.4665 50.9952 88.6059 49.1626L66.4195 27.3116C65.0567 25.9694 63.0065 25.569 61.2244 26.2971C59.4423 27.0252 58.2798 28.7379 58.2782 30.6371L58.2739 36.8215L70.8044 49.1626C72.6651 50.9952 72.663 53.9683 70.7998 55.8033L58.2521 68.1613L58.2478 74.3697C58.2464 76.2688 59.4068 77.9802 61.1879 78.7059C62.9688 79.4313 65.0198 79.0283 66.3843 77.6845L88.6012 55.8033Z" fill="#607D8B"/>
</svg>
