<?xml version="1.0" standalone="no"?>
<!DOCTYPE svg PUBLIC "-//W3C//DTD SVG 20010904//EN"
 "http://www.w3.org/TR/2001/REC-SVG-20010904/DTD/svg10.dtd">
<svg version="1.0" xmlns="http://www.w3.org/2000/svg"
 width="840.000000pt" height="840.000000pt" viewBox="0 0 840.000000 840.000000"
 preserveAspectRatio="xMidYMid meet">
<metadata>
Created by potrace 1.14, written by Peter Selinger 2001-2017
</metadata>
<g transform="translate(0.000000,840.000000) scale(0.100000,-0.100000)"
fill="#000000" stroke="none">
<path d="M1469 7436 c-2 -2 -22 -6 -44 -9 -45 -6 -68 -14 -140 -48 -54 -25
-52 -24 -109 -71 -112 -94 -174 -197 -204 -343 -8 -41 -9 -5513 0 -5550 12
-54 41 -129 59 -157 11 -14 19 -29 19 -32 0 -10 34 -50 94 -109 83 -81 223
-147 321 -149 6 0 18 -4 27 -9 10 -5 18 -6 18 -2 0 5 26 8 58 9 31 0 75 4 97
8 48 9 190 75 225 105 65 55 2784 2759 2811 2796 23 32 66 126 80 175 42 155
20 308 -63 448 -33 56 -264 289 -1581 1595 -282 279 -672 667 -867 861 -195
194 -380 369 -411 390 -84 55 -185 87 -294 92 -50 2 -94 2 -96 0z"/>
<path d="M4865 6693 c-114 -19 -195 -57 -269 -127 -31 -29 -56 -56 -56 -60 0
-4 -9 -21 -21 -37 -11 -16 -17 -29 -13 -29 4 0 0 -8 -8 -17 -8 -10 -16 -25
-16 -33 0 -8 -5 -31 -10 -52 -8 -30 -13 -111 -13 -208 0 -8 0 -114 0 -235 l1
-220 44 -45 c24 -25 220 -218 436 -430 746 -733 750 -737 778 -799 39 -82 50
-134 46 -214 -4 -88 -2 -80 -45 -189 -7 -16 -15 -28 -19 -28 -4 0 -11 -9 -16
-20 -12 -25 -86 -100 -504 -510 -664 -653 -720 -709 -721 -733 -4 -154 0 -604
6 -638 14 -80 86 -213 132 -242 6 -4 18 -13 25 -20 25 -25 106 -67 159 -84 53
-16 197 -21 219 -8 6 3 23 9 37 11 40 7 122 54 167 94 21 19 147 142 280 273
772 760 985 969 1239 1220 155 153 352 347 437 431 189 186 205 204 243 286
27 58 30 75 31 160 0 112 -5 132 -46 214 -33 66 -17 50 -892 911 -235 231
-550 541 -699 688 -150 147 -347 341 -438 431 -162 160 -212 201 -274 223 -16
6 -39 14 -50 19 -38 14 -132 23 -170 17z"/>
</g>
</svg>
